<?xml version="1.0" encoding="UTF-8"?>
<svg width="22px" height="20px" viewBox="0 0 22 20" version="1.1" xmlns="http://www.w3.org/2000/svg" xmlns:xlink="http://www.w3.org/1999/xlink">
    <!-- Generator: Sketch 53.2 (72643) - https://sketchapp.com -->
    <title>Logo@3x</title>
    <desc>Created with Sketch.</desc>
    <g id="Screens" stroke="none" stroke-width="1" fill="none" fill-rule="evenodd">
        <g id="Test" transform="translate(-30.000000, -32.000000)" fill="#FFC200">
            <g id="Navigation">
                <g id="Top" transform="translate(30.000000, 30.000000)">
                    <g id="Logo">
                        <path d="M10.8172336,2.94001473 C11.3441145,3.46689559 11.3441145,4.32341473 10.8172336,4.85029559 L5.41332734,10.2542018 C5.14853594,10.5162913 4.80268594,10.648687 4.45683594,10.648687 C4.11098594,10.648687 3.76513594,10.5162913 3.50304648,10.2514999 L0.801093359,7.54954676 C0.2742125,7.0226659 0.2742125,6.16614676 0.801093359,5.6392659 C1.32797422,5.11238504 2.18449336,5.11238504 2.71137422,5.6392659 L4.45683594,7.38742957 L8.90425078,2.93731277 C9.43383359,2.41043191 10.2903527,2.41313387 10.8172336,2.94001473 Z M10.8172336,13.7478272 C11.3441145,14.2747081 11.3441145,15.1312272 10.8172336,15.6581081 L5.41332734,21.0620143 C5.14853594,21.3241038 4.80268594,21.4564995 4.45683594,21.4564995 C4.11098594,21.4564995 3.76513594,21.3241038 3.50304648,21.0620143 L0.801093359,18.3600612 C0.2742125,17.8331804 0.2742125,16.9766612 0.801093359,16.4497804 C1.32797422,15.9228995 2.18449336,15.9228995 2.71137422,16.4497804 L4.45683594,18.1952421 L8.90425078,13.7451253 C9.43383359,13.2182444 10.2903527,13.2209464 10.8172336,13.7478272 Z M20.6685547,5.24478074 C21.4142938,5.24478074 22.0195313,5.85001824 22.0195313,6.5957573 C22.0195313,7.34149637 21.4142938,7.94673387 20.6685547,7.94673387 L15.2646484,7.94673387 C14.5189094,7.94673387 13.9136719,7.34149637 13.9136719,6.5957573 C13.9136719,5.85001824 14.5189094,5.24478074 15.2646484,5.24478074 L20.6685547,5.24478074 Z M20.6685547,16.0525932 C21.4142938,16.0525932 22.0195313,16.6578307 22.0195313,17.4035698 C22.0195313,18.1493089 21.4142938,18.7545464 20.6685547,18.7545464 L15.2646484,18.7545464 C14.5189094,18.7545464 13.9136719,18.1493089 13.9136719,17.4035698 C13.9136719,16.6578307 14.5189094,16.0525932 15.2646484,16.0525932 L20.6685547,16.0525932 Z"></path>
                    </g>
                </g>
            </g>
        </g>
    </g>
</svg>